<svg width="67" height="98" viewBox="0 0 67 98" fill="none" xmlns="http://www.w3.org/2000/svg">
<g filter="url(#filter0_d)">
<g clip-path="url(#clip0)">
<path d="M19.0513 89.6612C27.0898 89.6612 33.61 83.0214 33.61 74.8355V60.0098H19.0513C11.0128 60.0098 4.49268 66.6495 4.49268 74.8355C4.49268 83.0214 11.0128 89.6612 19.0513 89.6612Z" fill="#0ACF83"/>
<path d="M4.49268 45.1655C4.49268 36.9796 11.0128 30.3398 19.0513 30.3398H33.61V60.0094H19.0513C11.0128 59.9912 4.49268 53.3515 4.49268 45.1655Z" fill="#A259FF"/>
<path d="M4.49268 15.4956C4.49268 7.30965 11.0128 0.669922 19.0513 0.669922H33.61V30.3395H19.0513C11.0128 30.3395 4.49268 23.6816 4.49268 15.4956Z" fill="#F24E1E"/>
<path d="M33.6279 0.669922H48.1866C56.2251 0.669922 62.7452 7.30965 62.7452 15.4956C62.7452 23.6816 56.2251 30.3213 48.1866 30.3213H33.6279V0.669922Z" fill="#FF7262"/>
<path d="M62.7452 45.1655C62.7452 53.3515 56.2251 59.9913 48.1866 59.9913C40.1481 59.9913 33.6279 53.3515 33.6279 45.1655C33.6279 36.9796 40.1481 30.3398 48.1866 30.3398C56.2251 30.3398 62.7452 36.9796 62.7452 45.1655Z" fill="#1ABCFE"/>
</g>
</g>
<defs>
<filter id="filter0_d" x="0.492676" y="0.669922" width="66.2524" height="96.9906" filterUnits="userSpaceOnUse" color-interpolation-filters="sRGB">
<feFlood flood-opacity="0" result="BackgroundImageFix"/>
<feColorMatrix in="SourceAlpha" type="matrix" values="0 0 0 0 0 0 0 0 0 0 0 0 0 0 0 0 0 0 127 0"/>
<feOffset dy="4"/>
<feGaussianBlur stdDeviation="2"/>
<feColorMatrix type="matrix" values="0 0 0 0 0 0 0 0 0 0 0 0 0 0 0 0 0 0 0.25 0"/>
<feBlend mode="normal" in2="BackgroundImageFix" result="effect1_dropShadow"/>
<feBlend mode="normal" in="SourceGraphic" in2="effect1_dropShadow" result="shape"/>
</filter>
<clipPath id="clip0">
<rect width="58.2524" height="88.9906" fill="white" transform="translate(4.49268 0.669922)"/>
</clipPath>
</defs>
</svg>
